# xmcd CD database file
#
# Track frame offsets:
#	150
#	15855
#	35623
#
# Disc length: 669 seconds
#
# Revision: 0
# Processed by: cddbd v1.5.1PL0 Copyright (c) Steve Scherf et al.
# Submitted via: CDex 1.50
#
DISCID=15029b03
DTITLE=Natalie James - In My Heart Is Where You Belong
DYEAR=2002
DGENRE=Country
TTITLE0=In My Heart Is Where You Belong
TTITLE1=Angels (CFK Band)
TTITLE2=In My Heart Is Where You Belong (The Ripe Mix)
EXTD=YEAR: 2002
EXTT0=
EXTT1=
EXTT2=
PLAYORDER=
